<svg width="11" height="9" viewBox="0 0 11 9" fill="none" xmlns="http://www.w3.org/2000/svg">
<path d="M3.95834 6.67517L1.74575 4.46259C1.63574 4.35633 1.48838 4.29753 1.33544 4.29886C1.18249 4.30019 1.03618 4.36154 0.928026 4.46969C0.819871 4.57785 0.758523 4.72415 0.757194 4.8771C0.755865 5.03005 0.814661 5.1774 0.92092 5.28742L3.54592 7.91242C3.65531 8.02178 3.80366 8.08321 3.95834 8.08321C4.11302 8.08321 4.26136 8.02178 4.37075 7.91242L10.7874 1.49575C10.8937 1.38574 10.9525 1.23838 10.9511 1.08544C10.9498 0.932488 10.8885 0.786181 10.7803 0.678026C10.6722 0.569871 10.5259 0.508523 10.3729 0.507194C10.22 0.505865 10.0726 0.564662 9.96259 0.67092L3.95834 6.67517Z" fill="#011627"/>
</svg>
